<svg width="200" height="200" viewBox="0 0 100 100" xmlns="http://www.w3.org/2000/svg">
  <!--
    Redeveloped "SM Engine" Logo with Container Box
    Design: "Cutout" or "Stencil" effect for a modern app icon look.
  -->
  <defs>
    <!-- 1. The dark gradient for the main body of the box -->
    <linearGradient id="darkBoxFill" x1="0%" y1="0%" x2="100%" y2="100%">
      <stop offset="0%" stop-color="#2c3e50" /> <!-- Deep Slate -->
      <stop offset="100%" stop-color="#1c2833" /> <!-- Very Dark Blue -->
    </linearGradient>

    <!-- 2. The vibrant gradient that shows through the "cutout" -->
    <linearGradient id="cutoutGradient" x1="0%" y1="0%" x2="100%" y2="100%">
      <stop offset="0%" stop-color="#66b3ff" /> <!-- Bright Sky Blue -->
      <stop offset="100%" stop-color="#4c63ff" /> <!-- Vibrant Blue -->
    </linearGradient>

    <!-- 3. The subtle gradient for the box's border -->
    <linearGradient id="boxStroke" x1="0%" y1="100%" x2="100%" y2="0%">
      <stop offset="0%" stop-color="#404f60" />
      <stop offset="100%" stop-color="#607080" />
    </linearGradient>

    <!-- 4. The Mask: This is the magic that creates the cutout effect. -->
    <!-- The white rectangle makes the area visible, and the black path punches a hole in it. -->
    <mask id="logoCutoutMask">
      <rect width="100" height="100" fill="white" />
      <path fill="black"
            d="M10 60 L10 15 L20 10 L35 10 L45 10 L60 10 L60 55 L55 60 L35 60 L30 55 L30 35 L40 30 L40 15 L35 10 M30 35 L40 30" />
    </mask>

    <!-- 5. A performant drop shadow filter -->
    <filter id="logoDropShadow" x="-20%" y="-20%" width="140%" height="140%">
      <feDropShadow dx="2" dy="4" stdDeviation="3" flood-color="#000000" flood-opacity="0.3" />
    </filter>
  </defs>

  <!-- The main group applies the drop shadow to everything inside it -->
  <g filter="url(#logoDropShadow)">

    <!-- Layer 1: The solid, dark base of the box -->
    <rect x="5" y="5" width="90" height="90" rx="15" ry="15"
          fill="url(#darkBoxFill)" 
          stroke="url(#boxStroke)" 
          stroke-width="1.5" />

    <!-- Layer 2: The glowing layer, which is masked to create the final effect -->
    <!-- This rectangle is filled with the bright gradient, but only visible where the mask allows. -->
    <g mask="url(#logoCutoutMask)">
        <rect x="5" y="5" width="90" height="90" rx="15" ry="15"
              fill="url(#cutoutGradient)" />
    </g>

  </g>
</svg>
