<svg width="70" height="70" viewBox="0 0 70 70" xmlns="http://www.w3.org/2000/svg">
  <!-- 
    This is a self-contained SVG file. All styles and definitions are included.
    It can be used anywhere, like in an <img> tag or as a background image.
  -->
  <defs>
    <!-- Gradient for the main fill of the logo shape -->
    <linearGradient id="logoMainFill" x1="0%" y1="0%" x2="100%" y2="100%">
        <stop offset="0%" stop-color="#2c3e50" /> <!-- Deep Slate Blue -->
        <stop offset="100%" stop-color="#1c2833" /> <!-- Darker Slate -->
    </linearGradient>

    <!-- Gradient for the outer stroke (border) -->
    <linearGradient id="logoOuterStroke" x1="0%" y1="100%" x2="100%" y2="0%">
        <stop offset="0%" stop-color="#4e5b6b" />
        <stop offset="100%" stop-color="#7e8c9d" />
    </linearGradient>
    
    <!-- A sharp, bright gradient for the inner highlight to create a 3D bevel effect -->
    <linearGradient id="logoInnerHighlight" x1="0%" y1="0%" x2="100%" y2="100%">
        <stop offset="0%" stop-color="#66b3ff" /> <!-- Light Blue -->
        <stop offset="100%" stop-color="#89cff0" /> <!-- Lighter Sky Blue -->
    </linearGradient>
  </defs>

  <!-- A filter to apply a subtle drop shadow for depth -->
  <filter id="logoDropShadow" x="-20%" y="-20%" width="140%" height="140%">
    <feDropShadow dx="1" dy="2" stdDeviation="2" flood-color="#000000" flood-opacity="0.25" />
  </filter>

  <!-- The group applies the filter to all paths inside it -->
  <g filter="url(#logoDropShadow)">
    <!-- The single, continuous path that defines your logo's unique shape -->
    <path fill="url(#logoMainFill)" 
          stroke="url(#logoOuterStroke)" 
          stroke-width="2" 
          stroke-linejoin="round"
          d="M10 60 L10 15 L20 10 L35 10 L45 10 L60 10 L60 55 L55 60 L35 60 L30 55 L30 35 L40 30 L40 15 L35 10 M30 35 L40 30" />
    
    <!-- Inner path for the 3D highlight -->
    <path fill="none"
          stroke="url(#logoInnerHighlight)"
          stroke-width="1.5"
          stroke-linejoin="round"
          opacity="0.8"
          d="M12 58 L12 16 L21 12 L35 12 L44 12 L58 12 L58 54 L54 58 L35 58 L32 54 L32 36 L39 32 L39 16" />
  </g>
</svg>

